<svg width="40" height="32" viewBox="0 0 40 32" fill="none" xmlns="http://www.w3.org/2000/svg">
<path fill-rule="evenodd" clip-rule="evenodd" d="M37.6 0H2.39999C1.0751 0.00140381 0.00140381 1.07507 0 2.40002V28C0.00140381 29.3249 1.0751 30.3986 2.39999 30.4H6.39999L10.48 24.96C10.9333 24.3557 11.6446 24 12.4 24H27.6C28.3554 24 29.0667 24.3557 29.52 24.96L33.6 30.4H37.6C38.9249 30.3986 39.9986 29.3249 40 28V2.40002C39.9986 1.07507 38.9249 0.00140381 37.6 0ZM7.20001 20.8H4C3.5582 20.8 3.20001 20.4418 3.20001 20C3.20001 19.5582 3.5582 19.2 4 19.2H7.20001C7.64185 19.2 8 19.5582 8 20C8 20.4418 7.64185 20.8 7.20001 20.8ZM4 14.4H7.20001C7.64185 14.4 8 14.0418 8 13.6C8 13.1581 7.64185 12.8 7.20001 12.8H4C3.5582 12.8 3.20001 13.1581 3.20001 13.6C3.20001 14.0418 3.5582 14.4 4 14.4ZM7.20001 8H4C3.5582 8 3.20001 7.64185 3.20001 7.20001C3.20001 6.75818 3.5582 6.40002 4 6.40002H7.20001C7.64185 6.40002 8 6.75818 8 7.20001C8 7.64185 7.64185 8 7.20001 8ZM27.2 20.8C28.0837 20.8 28.8 20.0837 28.8 19.2V8C28.8 7.11639 28.0837 6.40002 27.2 6.40002H12.8C11.9164 6.40002 11.2 7.11639 11.2 8V19.2C11.2 20.0837 11.9164 20.8 12.8 20.8H27.2ZM36 20.8H32.8C32.3582 20.8 32 20.4418 32 20C32 19.5582 32.3582 19.2 32.8 19.2H36C36.4418 19.2 36.8 19.5582 36.8 20C36.8 20.4418 36.4418 20.8 36 20.8ZM32.8 14.4H36C36.4418 14.4 36.8 14.0418 36.8 13.6C36.8 13.1581 36.4418 12.8 36 12.8H32.8C32.3582 12.8 32 13.1581 32 13.6C32 14.0418 32.3582 14.4 32.8 14.4ZM36 8H32.8C32.3582 8 32 7.64185 32 7.20001C32 6.75818 32.3582 6.40002 32.8 6.40002H36C36.4418 6.40002 36.8 6.75818 36.8 7.20001C36.8 7.64185 36.4418 8 36 8ZM30.4 28.8L28.24 25.92C28.0886 25.7189 27.8517 25.6005 27.6 25.6H12.4C12.1483 25.6005 11.9114 25.7189 11.76 25.92L9.60001 28.8H30.4Z" transform="translate(0 0.799988)" fill="#1FDB84"/>
</svg>
