<svg width="40" height="34" viewBox="0 0 40 34" fill="none" xmlns="http://www.w3.org/2000/svg">
<path fill-rule="evenodd" clip-rule="evenodd" d="M37.6 30.4C38.9255 30.4 40 29.3255 40 28V2.40002C40 1.07452 38.9255 0 37.6 0H2.4C1.07452 0 0 1.07452 0 2.40002V28C0 29.3255 1.07452 30.4 2.4 30.4H3.2V32C3.2 32.8837 3.91634 33.6 4.8 33.6H8C8.88366 33.6 9.6 32.8837 9.6 32V30.4H30.4V32C30.4 32.8837 31.1163 33.6 32 33.6H35.2C36.0837 33.6 36.8 32.8837 36.8 32V30.4H37.6ZM31.919 16H28C27.5582 16 27.2 15.6418 27.2 15.2C27.2 14.7582 27.5582 14.4 28 14.4H31.919C31.4945 10.6028 28.1779 7.79852 24.363 8.01117C20.5481 8.22375 17.5636 11.3792 17.5636 15.2C17.5636 19.0208 20.5481 22.1762 24.363 22.3889C28.1779 22.6014 31.4945 19.7971 31.919 16ZM8 32V30.4H4.8V32H8ZM7.2 4.79999C7.64183 4.79999 8 5.15814 8 5.59998V24.8C8 25.2418 7.64183 25.6 7.2 25.6C6.75817 25.6 6.4 25.2418 6.4 24.8V22.4H5.6C5.15817 22.4 4.8 22.0418 4.8 21.6C4.8 21.1581 5.15817 20.8 5.6 20.8H6.4V16H5.6C5.15817 16 4.8 15.6418 4.8 15.2C4.8 14.7582 5.15817 14.4 5.6 14.4H6.4V9.59998H5.6C5.15817 9.59998 4.8 9.24182 4.8 8.79999C4.8 8.35815 5.15817 8 5.6 8H6.4V5.59998C6.4 5.15814 6.75817 4.79999 7.2 4.79999ZM33.6 15.2C33.6 10.3399 29.6601 6.40002 24.8 6.40002C19.9399 6.40002 16 10.3399 16 15.2C16 20.0601 19.9399 24 24.8 24C29.6601 24 33.6 20.0601 33.6 15.2ZM32 32V30.4H35.2V32H32Z" transform="translate(0 0.200012)" fill="#1FDB84"/>
</svg>
