<svg width="39" height="26" viewBox="0 0 39 26" fill="none" xmlns="http://www.w3.org/2000/svg">
<path fill-rule="evenodd" clip-rule="evenodd" d="M0 0.799988C0 0.358154 0.358154 0 0.799988 0H11.2L13.3032 2.10321C15.2506 1.76593 17.2236 1.59753 19.2 1.59998C27.1864 1.59998 34.0298 4.24225 36.9238 8H1.47614C2.5401 6.69128 3.85309 5.60657 5.33905 4.80865L3.20001 1.59998H0.799988C0.358154 1.59998 0 1.24182 0 0.799988ZM37.8656 14.4C38.2083 13.6457 38.3903 12.8284 38.4 12C38.3903 11.1716 38.2083 10.3542 37.8656 9.59998H0.534363C-0.178101 11.1207 -0.178101 12.8793 0.534363 14.4H37.8656ZM36.9238 16H1.47614C2.5401 17.3087 3.85309 18.3934 5.33905 19.1913L3.20001 22.4H0.799988C0.358154 22.4 0 22.7582 0 23.2C0 23.6418 0.358154 24 0.799988 24H11.2L13.3032 21.8968C15.2506 22.2341 17.2236 22.4025 19.2 22.4C27.1864 22.4 34.0298 19.7578 36.9238 16ZM6.77698 19.9192L5.12305 22.4H10.5373L11.4318 21.5054C9.83221 21.1296 8.27319 20.5983 6.77698 19.9192ZM20 24H26.4C26.8419 24 27.2 24.3582 27.2 24.8C27.2 25.2418 26.8419 25.6 26.4 25.6H20C19.5582 25.6 19.2 25.2418 19.2 24.8C19.2 24.3582 19.5582 24 20 24ZM6.77698 4.08075L5.12305 1.59998H10.5373L11.4318 2.49438C9.83221 2.87024 8.27319 3.40155 6.77698 4.08075Z" transform="translate(0.599976)" fill="#1FDB84"/>
</svg>
